<svg xmlns="http://www.w3.org/2000/svg" width="144.142" height="38.097" viewBox="0 0 144.142 38.097"><g transform="translate(-1364.828 -275.829)"><path d="M1947.989,312.952V295.465a23.3,23.3,0,0,1,.774-4.936h0c1.148-3.533,3.926-8.5,10.491-8.748,0,0,7.209-.231,7.275,8.743v22.428h5.869V290s.358-8.3-5.633-12.161a12.858,12.858,0,0,0-5.218-1.851,11.683,11.683,0,0,0-2.071-.153c-.113,0-.226,0-.34,0l0,.01c-.32.012-.651.036-.994.074-5.864.645-9.5,5.979-10.15,7.215V276.8h-5.869v36.149Z" transform="translate(-543.338 0)" fill="#0077db"/><rect width="5.869" height="36.149" transform="translate(1432.696 276.803)" fill="#0077db"/><g transform="translate(1432.69 276.803)"><rect width="5.881" height="36.149" transform="translate(0 0)" fill="#0077db"/></g><path d="M2687.538,292.394l-8.893,22.164-8.894-22.164h-5.894L2675.7,321.9l2.947,7.344,2.947-7.344h0l11.841-29.508Z" transform="translate(-1222.627 -15.591)" fill="#0077db"/><path d="M3136.3,643.437c-.149-.137-.3-.277-.441-.421a12.634,12.634,0,0,1-3.513-6.651H3126.4a18.57,18.57,0,0,0,5.306,10.81,19.086,19.086,0,0,0,1.479,1.332,18.5,18.5,0,0,0,4.006,2.468c.142.065.286.127.429.188a18.455,18.455,0,0,0,4.9,1.317v-5.951a12.613,12.613,0,0,1-6.21-3.092Z" transform="translate(-1657.962 -339.331)" fill="#0077db"/><path d="M3152.542,281.516c-.142-.065-.285-.127-.429-.188a18.614,18.614,0,0,0-25.715,14.8h5.951a12.755,12.755,0,0,1,17.076-9.544Z" transform="translate(-1657.962 -3.798)" fill="#0077db"/><path d="M3493.729,581.444l-3.141,3.14c0,.03-.01.06-.016.09a12.584,12.584,0,0,1-2.1,4.97,12.968,12.968,0,0,1-1.418,1.682,12.641,12.641,0,0,1-6.65,3.514v5.951a18.642,18.642,0,0,0,14.8-11.222,18.772,18.772,0,0,0,.663-1.826,18.417,18.417,0,0,0,.656-3.068q.024-.2.044-.392Z" transform="translate(-1991.151 -287.641)" fill="#ff683d"/><path d="M3604.59,356.357,3599.943,361l-1.747-1.747,6.393-6.394,6.394,6.394L3609.237,361Z" transform="translate(-2102.013 -72.505)" fill="#ff683d"/><path d="M3604.59,473.474l-4.647,4.647-1.747-1.747,6.393-6.394,6.394,6.394-1.747,1.747Z" transform="translate(-2102.013 -182.733)" fill="#ff683d"/><path d="M1389.241,292.389v17.486a23.3,23.3,0,0,1-.774,4.936h0c-1.148,3.533-3.925,8.5-10.491,8.748,0,0-7.21.231-7.275-8.743V292.389h-5.869v22.957s-.358,8.3,5.632,12.161a12.855,12.855,0,0,0,5.218,1.851,11.681,11.681,0,0,0,2.071.153q.169,0,.34,0l0-.01c.32-.012.651-.036.994-.074,5.864-.645,9.5-5.979,10.15-7.215v6.325h5.869V292.389Z" transform="translate(0 -15.586)" fill="#0077db"/></g></svg>